<?xml version="1.0" encoding="UTF-8"?>
<svg id="Layer_1" data-name="Layer 1" xmlns="http://www.w3.org/2000/svg" viewBox="0 0 424.7 478.19">
  <defs>
    <style>
      .cls-1 {
        fill: #303030;
      }
    </style>
  </defs>
  <path class="cls-1" d="M163.46,242.47c96.69-8.17,190.41,2.69,242.08,94.57,4.18,7.43,21.62,44.49,18.86,50.72-.63,1.42-12.84,13.09-15.13,15.17-110.13,100.32-283.79,100.34-393.94,0-2.28-2.08-14.5-13.75-15.13-15.17-1.7-3.85,7.46-27.23,9.67-32.34,25.94-60.24,87.51-107.37,153.59-112.95Z"/>
  <path class="cls-1" d="M196.26.85c121.83-13.75,172.2,143.69,70.76,202.07-84.16,48.43-184-28.23-160.13-122.05C116.96,41.32,155.13,5.49,196.26.85Z"/>
</svg>